<svg width="105" height="20" viewBox="0 0 105 20" fill="none" xmlns="http://www.w3.org/2000/svg">
<path d="M13.8715 14.554C13.8715 14.155 13.9475 13.7718 14.0995 13.4045C14.2515 13.0372 14.4605 12.711 14.7265 12.426C14.9925 12.141 15.3028 11.913 15.6575 11.742C16.0185 11.571 16.4048 11.4823 16.8165 11.476C17.2028 11.4697 17.5702 11.5267 17.9185 11.647C18.2732 11.7673 18.6025 11.9605 18.9065 12.2265C18.9825 12.2835 19.0617 12.3405 19.144 12.3975C19.2263 12.4545 19.315 12.4957 19.41 12.521C19.505 12.54 19.6032 12.54 19.7045 12.521C19.8122 12.4957 19.923 12.4323 20.037 12.331C20.1953 12.1917 20.2713 12.0175 20.265 11.8085C20.2587 11.5995 20.1732 11.4095 20.0085 11.2385C19.6285 10.8458 19.1693 10.5482 18.631 10.3455C18.0927 10.1365 17.529 10.032 16.94 10.032C16.313 10.032 15.724 10.1523 15.173 10.393C14.6283 10.6273 14.1502 10.9503 13.7385 11.362C13.3268 11.7673 13.0007 12.2455 12.76 12.7965C12.5257 13.3475 12.4085 13.9365 12.4085 14.5635L12.418 14.573C12.418 14.5793 12.4212 14.5857 12.4275 14.592L12.4085 14.63C12.4085 15.257 12.5257 15.8428 12.76 16.3875C13.0007 16.9258 13.3268 17.3977 13.7385 17.803C14.1502 18.2083 14.6283 18.5282 15.173 18.7625C15.724 18.9905 16.313 19.1045 16.94 19.1045C17.5227 19.1045 18.0832 19.0032 18.6215 18.8005C19.1662 18.5915 19.6285 18.2907 20.0085 17.898C20.1732 17.727 20.2587 17.5402 20.265 17.3375C20.2713 17.1285 20.1953 16.9543 20.037 16.815C19.923 16.7137 19.8122 16.6535 19.7045 16.6345C19.6032 16.6092 19.505 16.6092 19.41 16.6345C19.315 16.6535 19.2263 16.6915 19.144 16.7485C19.0617 16.7992 18.9825 16.853 18.9065 16.91C18.5962 17.1823 18.2668 17.3787 17.9185 17.499C17.5702 17.613 17.2028 17.6668 16.8165 17.6605C16.3985 17.6542 16.009 17.5655 15.648 17.3945C15.287 17.2172 14.9735 16.9892 14.7075 16.7105C14.4478 16.4255 14.242 16.1025 14.09 15.7415C13.9443 15.3742 13.8715 14.9942 13.8715 14.6015L13.8525 14.5825C13.8652 14.5698 13.8715 14.5603 13.8715 14.554ZM21.5101 7.999C21.5101 8.227 21.5893 8.42333 21.7476 8.588C21.9123 8.75267 22.1118 8.835 22.3461 8.835C22.5804 8.835 22.7768 8.75267 22.9351 8.588C23.0998 8.42333 23.1821 8.227 23.1821 7.999C23.1821 7.76467 23.0998 7.56833 22.9351 7.41C22.7768 7.24533 22.5804 7.163 22.3461 7.163C22.1118 7.163 21.9123 7.24533 21.7476 7.41C21.5893 7.56833 21.5101 7.76467 21.5101 7.999ZM23.0586 10.7635C23.0586 10.5608 22.9921 10.3898 22.8591 10.2505C22.7261 10.1112 22.5583 10.0415 22.3556 10.0415C22.1529 10.0415 21.9819 10.1112 21.8426 10.2505C21.7033 10.3898 21.6336 10.5608 21.6336 10.7635V18.2875C21.6336 18.4838 21.7033 18.6517 21.8426 18.791C21.9883 18.9303 22.1593 19 22.3556 19C22.5519 19 22.7166 18.9303 22.8496 18.791C22.9889 18.6517 23.0586 18.4838 23.0586 18.2875V10.7635ZM27.2159 7.543C27.2159 7.34033 27.1462 7.1725 27.0069 7.0395C26.8675 6.9065 26.6997 6.84 26.5034 6.84C26.3007 6.84 26.1297 6.9065 25.9904 7.0395C25.851 7.1725 25.7814 7.34033 25.7814 7.543V10.0605H24.8694C24.6667 10.0605 24.4957 10.1302 24.3564 10.2695C24.217 10.4025 24.1474 10.5703 24.1474 10.773C24.1474 10.9693 24.217 11.1372 24.3564 11.2765C24.4957 11.4158 24.6667 11.4855 24.8694 11.4855H25.7814V18.297C25.7814 18.4933 25.851 18.6612 25.9904 18.8005C26.1297 18.9335 26.3007 19 26.5034 19C26.6997 19 26.8675 18.9335 27.0069 18.8005C27.1462 18.6612 27.2159 18.4933 27.2159 18.297V11.4855H28.3274C28.53 11.4855 28.6979 11.419 28.8309 11.286C28.9702 11.1467 29.0399 10.9757 29.0399 10.773C29.0399 10.5703 28.9702 10.4025 28.8309 10.2695C28.6979 10.1302 28.53 10.0605 28.3274 10.0605H27.2159V7.543ZM31.5847 11.4C32.009 10.982 32.4999 10.6527 33.0572 10.412C33.6209 10.1713 34.2225 10.051 34.8622 10.051H34.9192C35.1535 10.051 35.334 10.1207 35.4607 10.26C35.5937 10.393 35.6602 10.5608 35.6602 10.7635C35.6602 10.9662 35.5874 11.134 35.4417 11.267C35.296 11.4 35.1219 11.4665 34.9192 11.4665H34.8622C34.4125 11.4665 33.9882 11.5552 33.5892 11.7325C33.1965 11.9035 32.8514 12.1378 32.5537 12.4355C32.256 12.7332 32.0185 13.0847 31.8412 13.49C31.6702 13.8953 31.5847 14.326 31.5847 14.782V18.2875C31.5847 18.4838 31.515 18.6517 31.3757 18.791C31.2427 18.9303 31.0749 19 30.8722 19C30.6759 19 30.508 18.9303 30.3687 18.791C30.2294 18.6517 30.1597 18.4838 30.1597 18.2875V10.7635C30.1597 10.5608 30.2294 10.3898 30.3687 10.2505C30.508 10.1112 30.679 10.0415 30.8817 10.0415C31.0844 10.0415 31.2522 10.1112 31.3852 10.2505C31.5182 10.3898 31.5847 10.5608 31.5847 10.7635V11.4ZM36.7258 10.754C36.7258 10.5513 36.7923 10.3835 36.9253 10.2505C37.0647 10.1112 37.2357 10.0415 37.4383 10.0415C37.6347 10.0415 37.8025 10.1112 37.9418 10.2505C38.0812 10.3835 38.1508 10.5513 38.1508 10.754V14.6585C38.1635 15.5832 38.3725 16.302 38.7778 16.815C39.1895 17.328 39.7658 17.5845 40.5068 17.5845C40.8678 17.5845 41.2035 17.5148 41.5138 17.3755C41.8305 17.2298 42.106 17.0335 42.3403 16.7865C42.5747 16.5395 42.7615 16.245 42.9008 15.903C43.0465 15.561 43.1257 15.1905 43.1383 14.7915V10.773C43.1383 10.5703 43.208 10.4025 43.3473 10.2695C43.4867 10.1302 43.6545 10.0605 43.8508 10.0605C44.0472 10.0605 44.215 10.1302 44.3543 10.2695C44.5 10.4025 44.5728 10.5703 44.5728 10.773V18.297C44.5728 18.4933 44.5 18.6612 44.3543 18.8005C44.215 18.9398 44.044 19.0095 43.8413 19.0095C43.6387 19.0095 43.4708 18.9398 43.3378 18.8005C43.2048 18.6612 43.1383 18.4933 43.1383 18.297V17.594C42.771 18.0247 42.3467 18.3667 41.8653 18.62C41.3903 18.8733 40.8868 19 40.3548 19C39.8038 19 39.3035 18.8955 38.8538 18.6865C38.4105 18.4775 38.0305 18.1798 37.7138 17.7935C37.3972 17.4072 37.1533 16.948 36.9823 16.416C36.8113 15.8777 36.7258 15.2792 36.7258 14.6205V10.754ZM48.9393 15.067C49.1799 15.1367 49.4174 15.2127 49.6518 15.295C49.8861 15.371 50.0951 15.466 50.2788 15.58C50.4688 15.694 50.6208 15.8302 50.7348 15.9885C50.8488 16.1405 50.9058 16.3273 50.9058 16.549C50.9058 16.7517 50.8551 16.9322 50.7538 17.0905C50.6588 17.2488 50.5289 17.385 50.3643 17.499C50.2059 17.6067 50.0223 17.6922 49.8133 17.7555C49.6106 17.8125 49.3984 17.841 49.1768 17.841C48.7081 17.841 48.3154 17.7618 47.9988 17.6035C47.6884 17.4452 47.4256 17.1918 47.2103 16.8435C47.0583 16.6535 46.8873 16.5458 46.6973 16.5205C46.5136 16.4888 46.3521 16.5142 46.2128 16.5965C46.0734 16.6788 45.9753 16.8023 45.9183 16.967C45.8676 17.1317 45.8993 17.3185 46.0133 17.5275C46.1526 17.7998 46.3363 18.0342 46.5643 18.2305C46.7986 18.4268 47.0551 18.5915 47.3338 18.7245C47.6124 18.8512 47.9101 18.9462 48.2268 19.0095C48.5434 19.0728 48.8601 19.1045 49.1768 19.1045C49.6138 19.1045 50.0223 19.038 50.4023 18.905C50.7823 18.772 51.1116 18.5883 51.3903 18.354C51.6753 18.1197 51.8969 17.8442 52.0553 17.5275C52.2136 17.2108 52.2928 16.8657 52.2928 16.492C52.2928 16.093 52.2104 15.7573 52.0458 15.485C51.8874 15.2063 51.6721 14.9688 51.3998 14.7725C51.1274 14.5698 50.8108 14.3988 50.4498 14.2595C50.0951 14.1202 49.7183 13.9872 49.3193 13.8605C49.0723 13.7845 48.8411 13.7085 48.6258 13.6325C48.4168 13.5502 48.2299 13.4583 48.0653 13.357C47.9069 13.2493 47.7803 13.1258 47.6853 12.9865C47.5966 12.8408 47.5523 12.6667 47.5523 12.464C47.5523 12.255 47.5998 12.0777 47.6948 11.932C47.7898 11.78 47.9133 11.6565 48.0653 11.5615C48.2236 11.4665 48.4009 11.4 48.5973 11.362C48.7999 11.3177 49.0058 11.2955 49.2148 11.2955C49.6011 11.2955 49.9304 11.3778 50.2028 11.5425C50.4814 11.7072 50.7538 11.9257 51.0198 12.198C51.1464 12.2613 51.2763 12.2772 51.4093 12.2455C51.5423 12.2075 51.6531 12.141 51.7418 12.046C51.8241 11.9573 51.8748 11.8528 51.8938 11.7325C51.9128 11.6122 51.8874 11.4792 51.8178 11.3335C51.7038 11.1182 51.5486 10.9282 51.3523 10.7635C51.1623 10.5988 50.9469 10.4627 50.7063 10.355C50.4656 10.2473 50.2091 10.1682 49.9368 10.1175C49.6644 10.0605 49.3921 10.032 49.1198 10.032C48.7398 10.032 48.3693 10.089 48.0083 10.203C47.6473 10.3107 47.3243 10.4722 47.0393 10.6875C46.7606 10.8965 46.5358 11.1562 46.3648 11.4665C46.1938 11.7705 46.1083 12.1188 46.1083 12.5115C46.1083 12.8788 46.1874 13.1955 46.3458 13.4615C46.5104 13.7275 46.7226 13.9618 46.9823 14.1645C47.2483 14.3608 47.5491 14.5318 47.8848 14.6775C48.2268 14.8168 48.5783 14.9467 48.9393 15.067ZM61.5616 18.3065C61.5616 18.5092 61.492 18.677 61.3526 18.81C61.2133 18.943 61.0423 19.0095 60.8396 19.0095C60.6433 19.0095 60.4755 18.943 60.3361 18.81C60.2031 18.677 60.1366 18.5092 60.1366 18.3065V14.4495C60.1366 13.9808 60.0828 13.5628 59.9751 13.1955C59.8675 12.8282 59.7123 12.5178 59.5096 12.2645C59.307 12.0048 59.0568 11.8085 58.7591 11.6755C58.4678 11.5425 58.1385 11.476 57.7711 11.476C57.4101 11.476 57.0713 11.5488 56.7546 11.6945C56.4443 11.8338 56.172 12.0302 55.9376 12.2835C55.7033 12.5305 55.5133 12.825 55.3676 13.167C55.2283 13.5027 55.1523 13.8668 55.1396 14.2595V18.2875C55.1396 18.4838 55.07 18.6517 54.9306 18.791C54.7976 18.9303 54.633 19 54.4366 19C54.2403 19 54.0693 18.9303 53.9236 18.791C53.7843 18.6517 53.7146 18.4838 53.7146 18.2875V10.7635C53.7146 10.5608 53.7843 10.3898 53.9236 10.2505C54.063 10.1112 54.234 10.0415 54.4366 10.0415C54.6393 10.0415 54.8071 10.1112 54.9401 10.2505C55.0731 10.3898 55.1396 10.5608 55.1396 10.7635V11.476C55.507 11.039 55.9281 10.6938 56.4031 10.4405C56.8845 10.1808 57.3943 10.051 57.9326 10.051C58.4836 10.051 58.9808 10.1555 59.4241 10.3645C59.8675 10.5735 60.2475 10.8712 60.5641 11.2575C60.8808 11.6375 61.1246 12.0967 61.2956 12.635C61.473 13.167 61.5616 13.7592 61.5616 14.4115V18.3065ZM64.2561 14.5825C64.2561 14.1518 64.3353 13.7497 64.4936 13.376C64.6583 12.996 64.8799 12.6667 65.1586 12.388C65.4373 12.1093 65.7634 11.8908 66.1371 11.7325C66.5171 11.5678 66.9224 11.4855 67.3531 11.4855C67.7901 11.4855 68.1954 11.5678 68.5691 11.7325C68.9491 11.8908 69.2784 12.1093 69.5571 12.388C69.8358 12.6667 70.0543 12.996 70.2126 13.376C70.3709 13.7497 70.4501 14.1518 70.4501 14.5825C70.4501 15.0068 70.3709 15.4058 70.2126 15.7795C70.0543 16.1532 69.8358 16.4825 69.5571 16.7675C69.2784 17.0462 68.9491 17.2678 68.5691 17.4325C68.1954 17.5972 67.7901 17.6795 67.3531 17.6795C66.9224 17.6795 66.5171 17.5972 66.1371 17.4325C65.7634 17.2678 65.4373 17.0462 65.1586 16.7675C64.8799 16.4825 64.6583 16.1532 64.4936 15.7795C64.3353 15.4058 64.2561 15.0068 64.2561 14.5825ZM62.8216 14.5825C62.8216 15.2095 62.9388 15.7985 63.1731 16.3495C63.4138 16.8942 63.7399 17.3723 64.1516 17.784C64.5633 18.1957 65.0446 18.5218 65.5956 18.7625C66.1466 18.9968 66.7324 19.114 67.3531 19.114C67.9801 19.114 68.5659 18.9968 69.1106 18.7625C69.6616 18.5218 70.1398 18.1957 70.5451 17.784C70.9568 17.3723 71.2798 16.8942 71.5141 16.3495C71.7548 15.7985 71.8751 15.2095 71.8751 14.5825C71.8751 13.9555 71.7548 13.3665 71.5141 12.8155C71.2798 12.2645 70.9568 11.7863 70.5451 11.381C70.1398 10.9693 69.6616 10.6463 69.1106 10.412C68.5659 10.1713 67.9801 10.051 67.3531 10.051C66.7324 10.051 66.1466 10.1713 65.5956 10.412C65.0446 10.6463 64.5633 10.9693 64.1516 11.381C63.7399 11.7863 63.4138 12.2645 63.1731 12.8155C62.9388 13.3665 62.8216 13.9555 62.8216 14.5825ZM75.4766 7.543C75.4766 7.34033 75.407 7.1725 75.2676 7.0395C75.1283 6.9065 74.9605 6.84 74.7641 6.84C74.5615 6.84 74.3905 6.9065 74.2511 7.0395C74.1118 7.1725 74.0421 7.34033 74.0421 7.543V10.0605H73.1301C72.9275 10.0605 72.7565 10.1302 72.6171 10.2695C72.4778 10.4025 72.4081 10.5703 72.4081 10.773C72.4081 10.9693 72.4778 11.1372 72.6171 11.2765C72.7565 11.4158 72.9275 11.4855 73.1301 11.4855H74.0421V18.297C74.0421 18.4933 74.1118 18.6612 74.2511 18.8005C74.3905 18.9335 74.5615 19 74.7641 19C74.9605 19 75.1283 18.9335 75.2676 18.8005C75.407 18.6612 75.4766 18.4933 75.4766 18.297V11.4855H76.5881C76.7908 11.4855 76.9586 11.419 77.0916 11.286C77.231 11.1467 77.3006 10.9757 77.3006 10.773C77.3006 10.5703 77.231 10.4025 77.0916 10.2695C76.9586 10.1302 76.7908 10.0605 76.5881 10.0605H75.4766V7.543ZM86.1557 15.2285C86.3647 15.2285 86.5325 15.1652 86.6592 15.0385C86.7922 14.9118 86.8587 14.7472 86.8587 14.5445C86.8523 13.9238 86.7288 13.3412 86.4882 12.7965C86.2475 12.2518 85.9213 11.7768 85.5097 11.3715C85.1043 10.9598 84.6262 10.6368 84.0752 10.4025C83.5242 10.1682 82.9383 10.051 82.3177 10.051C81.6907 10.051 81.1017 10.1713 80.5507 10.412C79.9997 10.6463 79.5183 10.9693 79.1067 11.381C78.695 11.7863 78.3688 12.2645 78.1282 12.8155C77.8938 13.3665 77.7767 13.9555 77.7767 14.5825C77.7767 15.2095 77.8938 15.7985 78.1282 16.3495C78.3688 16.9005 78.695 17.3818 79.1067 17.7935C79.5183 18.1988 79.9997 18.5187 80.5507 18.753C81.1017 18.9873 81.6907 19.1045 82.3177 19.1045C82.6787 19.1045 83.0112 19.0728 83.3152 19.0095C83.6192 18.9462 83.8978 18.8607 84.1512 18.753C84.4045 18.6453 84.6325 18.5187 84.8352 18.373C85.0442 18.2273 85.231 18.069 85.3957 17.898C85.5603 17.7523 85.6458 17.5908 85.6522 17.4135C85.6585 17.2298 85.6142 17.0715 85.5192 16.9385C85.4368 16.7992 85.326 16.701 85.1867 16.644C85.079 16.6123 84.965 16.606 84.8447 16.625C84.7243 16.6377 84.6008 16.6947 84.4742 16.796C84.2398 17.081 83.939 17.309 83.5717 17.48C83.2043 17.651 82.7863 17.7365 82.3177 17.7365C81.944 17.7365 81.5893 17.6732 81.2537 17.5465C80.9243 17.4198 80.6267 17.2457 80.3607 17.024C80.101 16.796 79.8825 16.53 79.7052 16.226C79.5342 15.9157 79.4202 15.5832 79.3632 15.2285H86.1557ZM79.3157 14.0315C79.3663 13.6705 79.4772 13.3317 79.6482 13.015C79.8255 12.692 80.0472 12.4133 80.3132 12.179C80.5792 11.9447 80.8832 11.761 81.2252 11.628C81.5735 11.4887 81.944 11.419 82.3367 11.419C82.7293 11.419 83.0998 11.4855 83.4482 11.6185C83.7965 11.7515 84.1037 11.9352 84.3697 12.1695C84.642 12.4038 84.8668 12.6825 85.0442 13.0055C85.2278 13.3222 85.345 13.6642 85.3957 14.0315H79.3157ZM90.6873 15.067C90.928 15.1367 91.1655 15.2127 91.3998 15.295C91.6341 15.371 91.8431 15.466 92.0268 15.58C92.2168 15.694 92.3688 15.8302 92.4828 15.9885C92.5968 16.1405 92.6538 16.3273 92.6538 16.549C92.6538 16.7517 92.6031 16.9322 92.5018 17.0905C92.4068 17.2488 92.277 17.385 92.1123 17.499C91.954 17.6067 91.7703 17.6922 91.5613 17.7555C91.3586 17.8125 91.1465 17.841 90.9248 17.841C90.4561 17.841 90.0635 17.7618 89.7468 17.6035C89.4365 17.4452 89.1736 17.1918 88.9583 16.8435C88.8063 16.6535 88.6353 16.5458 88.4453 16.5205C88.2616 16.4888 88.1001 16.5142 87.9608 16.5965C87.8215 16.6788 87.7233 16.8023 87.6663 16.967C87.6156 17.1317 87.6473 17.3185 87.7613 17.5275C87.9006 17.7998 88.0843 18.0342 88.3123 18.2305C88.5466 18.4268 88.8031 18.5915 89.0818 18.7245C89.3605 18.8512 89.6581 18.9462 89.9748 19.0095C90.2915 19.0728 90.6081 19.1045 90.9248 19.1045C91.3618 19.1045 91.7703 19.038 92.1503 18.905C92.5303 18.772 92.8596 18.5883 93.1383 18.354C93.4233 18.1197 93.645 17.8442 93.8033 17.5275C93.9616 17.2108 94.0408 16.8657 94.0408 16.492C94.0408 16.093 93.9585 15.7573 93.7938 15.485C93.6355 15.2063 93.4201 14.9688 93.1478 14.7725C92.8755 14.5698 92.5588 14.3988 92.1978 14.2595C91.8431 14.1202 91.4663 13.9872 91.0673 13.8605C90.8203 13.7845 90.5891 13.7085 90.3738 13.6325C90.1648 13.5502 89.978 13.4583 89.8133 13.357C89.655 13.2493 89.5283 13.1258 89.4333 12.9865C89.3446 12.8408 89.3003 12.6667 89.3003 12.464C89.3003 12.255 89.3478 12.0777 89.4428 11.932C89.5378 11.78 89.6613 11.6565 89.8133 11.5615C89.9716 11.4665 90.149 11.4 90.3453 11.362C90.548 11.3177 90.7538 11.2955 90.9628 11.2955C91.3491 11.2955 91.6785 11.3778 91.9508 11.5425C92.2295 11.7072 92.5018 11.9257 92.7678 12.198C92.8945 12.2613 93.0243 12.2772 93.1573 12.2455C93.2903 12.2075 93.4011 12.141 93.4898 12.046C93.5721 11.9573 93.6228 11.8528 93.6418 11.7325C93.6608 11.6122 93.6355 11.4792 93.5658 11.3335C93.4518 11.1182 93.2966 10.9282 93.1003 10.7635C92.9103 10.5988 92.695 10.4627 92.4543 10.355C92.2136 10.2473 91.9571 10.1682 91.6848 10.1175C91.4125 10.0605 91.1401 10.032 90.8678 10.032C90.4878 10.032 90.1173 10.089 89.7563 10.203C89.3953 10.3107 89.0723 10.4722 88.7873 10.6875C88.5086 10.8965 88.2838 11.1562 88.1128 11.4665C87.9418 11.7705 87.8563 12.1188 87.8563 12.5115C87.8563 12.8788 87.9355 13.1955 88.0938 13.4615C88.2585 13.7275 88.4706 13.9618 88.7303 14.1645C88.9963 14.3608 89.2971 14.5318 89.6328 14.6775C89.9748 14.8168 90.3263 14.9467 90.6873 15.067Z" fill="white"/>
<circle cx="4.5" cy="14.5" r="4" stroke="#E89B17"/>
<circle cx="10.5" cy="4.5" r="4" stroke="#2F853A"/>
</svg>
